# xmcd CD database file
#
# Track frame offsets:
#	150
#	18892
#	33848
#	49162
#	66471
#	101993
#	144025
#	163061
#	191515
#	220814
#	252960
#
# Disc length: 3801 seconds
#
# Revision: 2
# Processed by: cddbd v1.5.2PL0 Copyright (c) Steve Scherf et al.
# Submitted via: CDex 1.70beta2
#
DISCID=970ed70b
DTITLE=Stan Getz Quartet with Lou Levy - Complete Studio Master Takes   -   CD 1
DYEAR=2007
DGENRE=Jazz
TTITLE0=of Thee I sing
TTITLE1=a Handful of Stars
TTITLE2=Love is here to stay
TTITLE3=Serenade in blue
TTITLE4=Blues for Mary Jane
TTITLE5=There will never be another You
TTITLE6=You´re blasé
TTITLE7=too close for Comfort
TTITLE8=Like Someone in Love
TTITLE9=How about You?
TTITLE10=Where or when
EXTD=YEAR: 2007
EXTT0=
EXTT1=
EXTT2=
EXTT3=
EXTT4=
EXTT5=
EXTT6=
EXTT7=
EXTT8=
EXTT9=
EXTT10=
PLAYORDER=
